<?xml version="1.0" encoding="UTF-8" standalone="no"?>
<!DOCTYPE svg PUBLIC "-//W3C//DTD SVG 1.1//EN"
 "http://www.w3.org/Graphics/SVG/1.1/DTD/svg11.dtd">
<!-- Generated by graphviz version 3.0.0 (20220226.1711)
 -->
<!-- Title: dependencies Pages: 1 -->
<svg width="1151pt" height="174pt"
 viewBox="0.00 0.00 1151.00 173.80" xmlns="http://www.w3.org/2000/svg" xmlns:xlink="http://www.w3.org/1999/xlink">
<g id="graph0" class="graph" transform="scale(1 1) rotate(0) translate(4 169.8)">
<title>dependencies</title>
<polygon fill="white" stroke="transparent" points="-4,4 -4,-169.8 1147,-169.8 1147,4 -4,4"/>
<text text-anchor="middle" x="571.5" y="-8.2" font-family="sans-serif" font-size="14.00">dependencies</text>
<g id="clust1" class="cluster">
<title>cluster_TrisModule</title>
<polygon fill="none" stroke="black" stroke-dasharray="1,5" points="8,-32.8 8,-157.8 1135,-157.8 1135,-32.8 8,-32.8"/>
</g>
<g id="clust7" class="cluster">
<title>cluster_TrisModule_imports</title>
<polygon fill="none" stroke="black" points="596,-40.8 596,-92.8 1127,-92.8 1127,-40.8 596,-40.8"/>
</g>
<g id="clust2" class="cluster">
<title>cluster_TrisModule_declarations</title>
<polygon fill="none" stroke="black" points="16,-40.8 16,-92.8 588,-92.8 588,-40.8 16,-40.8"/>
</g>
<!-- TriEditComponent -->
<g id="node1" class="node">
<title>TriEditComponent</title>
<polygon fill="#ffffb3" stroke="black" points="579.77,-84.8 458.23,-84.8 458.23,-48.8 579.77,-48.8 579.77,-84.8"/>
<text text-anchor="middle" x="519" y="-62.6" font-family="Times,serif" font-size="14.00">TriEditComponent</text>
</g>
<!-- TrisModule -->
<g id="node5" class="node">
<title>TrisModule</title>
<polygon fill="#8dd3c7" stroke="black" points="634.1,-149.8 631.1,-153.8 610.1,-153.8 607.1,-149.8 551.9,-149.8 551.9,-113.8 634.1,-113.8 634.1,-149.8"/>
<text text-anchor="middle" x="593" y="-127.6" font-family="Times,serif" font-size="14.00">TrisModule</text>
</g>
<!-- TriEditComponent&#45;&gt;TrisModule -->
<g id="edge1" class="edge">
<title>TriEditComponent&#45;&gt;TrisModule</title>
<path fill="none" stroke="black" d="M565.92,-84.91C565.92,-84.91 565.92,-103.79 565.92,-103.79"/>
<polygon fill="black" stroke="black" points="562.42,-103.79 565.92,-113.79 569.42,-103.79 562.42,-103.79"/>
</g>
<!-- TrisComponent -->
<g id="node2" class="node">
<title>TrisComponent</title>
<polygon fill="#ffffb3" stroke="black" points="439.88,-84.8 336.12,-84.8 336.12,-48.8 439.88,-48.8 439.88,-84.8"/>
<text text-anchor="middle" x="388" y="-62.6" font-family="Times,serif" font-size="14.00">TrisComponent</text>
</g>
<!-- TrisComponent&#45;&gt;TrisModule -->
<g id="edge2" class="edge">
<title>TrisComponent&#45;&gt;TrisModule</title>
<path fill="none" stroke="black" d="M388,-84.83C388,-101.2 388,-122.8 388,-122.8 388,-122.8 541.52,-122.8 541.52,-122.8"/>
<polygon fill="black" stroke="black" points="541.52,-126.3 551.52,-122.8 541.52,-119.3 541.52,-126.3"/>
</g>
<!-- TrisFiltersComponent -->
<g id="node3" class="node">
<title>TrisFiltersComponent</title>
<polygon fill="#ffffb3" stroke="black" points="317.66,-84.8 178.34,-84.8 178.34,-48.8 317.66,-48.8 317.66,-84.8"/>
<text text-anchor="middle" x="248" y="-62.6" font-family="Times,serif" font-size="14.00">TrisFiltersComponent</text>
</g>
<!-- TrisFiltersComponent&#45;&gt;TrisModule -->
<g id="edge3" class="edge">
<title>TrisFiltersComponent&#45;&gt;TrisModule</title>
<path fill="none" stroke="black" d="M248,-84.91C248,-104.14 248,-131.8 248,-131.8 248,-131.8 541.73,-131.8 541.73,-131.8"/>
<polygon fill="black" stroke="black" points="541.73,-135.3 551.73,-131.8 541.73,-128.3 541.73,-135.3"/>
</g>
<!-- TrisTableComponent -->
<g id="node4" class="node">
<title>TrisTableComponent</title>
<polygon fill="#ffffb3" stroke="black" points="159.75,-84.8 24.25,-84.8 24.25,-48.8 159.75,-48.8 159.75,-84.8"/>
<text text-anchor="middle" x="92" y="-62.6" font-family="Times,serif" font-size="14.00">TrisTableComponent</text>
</g>
<!-- TrisTableComponent&#45;&gt;TrisModule -->
<g id="edge4" class="edge">
<title>TrisTableComponent&#45;&gt;TrisModule</title>
<path fill="none" stroke="black" d="M92,-85.09C92,-107.01 92,-140.8 92,-140.8 92,-140.8 541.57,-140.8 541.57,-140.8"/>
<polygon fill="black" stroke="black" points="541.57,-144.3 551.57,-140.8 541.57,-137.3 541.57,-144.3"/>
</g>
<!-- AgentsSelectModule -->
<g id="node6" class="node">
<title>AgentsSelectModule</title>
<polygon fill="#8dd3c7" stroke="black" points="1118.92,-84.8 1115.92,-88.8 1094.92,-88.8 1091.92,-84.8 985.08,-84.8 985.08,-48.8 1118.92,-48.8 1118.92,-84.8"/>
<text text-anchor="middle" x="1052" y="-62.6" font-family="Times,serif" font-size="14.00">AgentsSelectModule</text>
</g>
<!-- AgentsSelectModule&#45;&gt;TrisModule -->
<g id="edge5" class="edge">
<title>AgentsSelectModule&#45;&gt;TrisModule</title>
<path fill="none" stroke="black" d="M1052,-85.09C1052,-107.01 1052,-140.8 1052,-140.8 1052,-140.8 644.14,-140.8 644.14,-140.8"/>
<polygon fill="black" stroke="black" points="644.14,-137.3 634.14,-140.8 644.14,-144.3 644.14,-137.3"/>
</g>
<!-- SpinnerModule -->
<g id="node7" class="node">
<title>SpinnerModule</title>
<polygon fill="#8dd3c7" stroke="black" points="967.6,-84.8 964.6,-88.8 943.6,-88.8 940.6,-84.8 864.4,-84.8 864.4,-48.8 967.6,-48.8 967.6,-84.8"/>
<text text-anchor="middle" x="916" y="-62.6" font-family="Times,serif" font-size="14.00">SpinnerModule</text>
</g>
<!-- SpinnerModule&#45;&gt;TrisModule -->
<g id="edge6" class="edge">
<title>SpinnerModule&#45;&gt;TrisModule</title>
<path fill="none" stroke="black" d="M916,-84.91C916,-104.14 916,-131.8 916,-131.8 916,-131.8 644.24,-131.8 644.24,-131.8"/>
<polygon fill="black" stroke="black" points="644.24,-128.3 634.24,-131.8 644.24,-135.3 644.24,-128.3"/>
</g>
<!-- TaxrefModule -->
<g id="node8" class="node">
<title>TaxrefModule</title>
<polygon fill="#8dd3c7" stroke="black" points="846.36,-84.8 843.36,-88.8 822.36,-88.8 819.36,-84.8 749.64,-84.8 749.64,-48.8 846.36,-48.8 846.36,-84.8"/>
<text text-anchor="middle" x="798" y="-62.6" font-family="Times,serif" font-size="14.00">TaxrefModule</text>
</g>
<!-- TaxrefModule&#45;&gt;TrisModule -->
<g id="edge7" class="edge">
<title>TaxrefModule&#45;&gt;TrisModule</title>
<path fill="none" stroke="black" d="M798,-84.83C798,-101.2 798,-122.8 798,-122.8 798,-122.8 644.48,-122.8 644.48,-122.8"/>
<polygon fill="black" stroke="black" points="644.48,-119.3 634.48,-122.8 644.48,-126.3 644.48,-119.3"/>
</g>
<!-- TrisRoutingModule -->
<g id="node9" class="node">
<title>TrisRoutingModule</title>
<polygon fill="#8dd3c7" stroke="black" points="731.72,-84.8 728.72,-88.8 707.72,-88.8 704.72,-84.8 604.28,-84.8 604.28,-48.8 731.72,-48.8 731.72,-84.8"/>
<text text-anchor="middle" x="668" y="-62.6" font-family="Times,serif" font-size="14.00">TrisRoutingModule</text>
</g>
<!-- TrisRoutingModule&#45;&gt;TrisModule -->
<g id="edge8" class="edge">
<title>TrisRoutingModule&#45;&gt;TrisModule</title>
<path fill="none" stroke="black" d="M619.22,-84.91C619.22,-84.91 619.22,-103.79 619.22,-103.79"/>
<polygon fill="black" stroke="black" points="615.72,-103.79 619.22,-113.79 622.72,-103.79 615.72,-103.79"/>
</g>
</g>
</svg>
