<?xml version="1.0" encoding="UTF-8" standalone="no"?>
<!DOCTYPE svg PUBLIC "-//W3C//DTD SVG 1.1//EN"
 "http://www.w3.org/Graphics/SVG/1.1/DTD/svg11.dtd">
<!-- Generated by graphviz version 3.0.0 (20220226.1711)
 -->
<!-- Title: dependencies Pages: 1 -->
<svg width="178pt" height="247pt"
 viewBox="0.00 0.00 178.00 246.80" xmlns="http://www.w3.org/2000/svg" xmlns:xlink="http://www.w3.org/1999/xlink">
<g id="graph0" class="graph" transform="scale(1 1) rotate(0) translate(4 242.8)">
<title>dependencies</title>
<polygon fill="white" stroke="transparent" points="-4,4 -4,-242.8 174,-242.8 174,4 -4,4"/>
<text text-anchor="middle" x="85" y="-8.2" font-family="sans-serif" font-size="14.00">dependencies</text>
<g id="clust1" class="cluster">
<title>cluster_TaxrefModule</title>
<polygon fill="none" stroke="black" stroke-dasharray="1,5" points="8,-32.8 8,-230.8 162,-230.8 162,-32.8 8,-32.8"/>
</g>
<g id="clust2" class="cluster">
<title>cluster_TaxrefModule_declarations</title>
<polygon fill="none" stroke="black" points="18,-40.8 18,-92.8 152,-92.8 152,-40.8 18,-40.8"/>
</g>
<g id="clust5" class="cluster">
<title>cluster_TaxrefModule_exports</title>
<polygon fill="none" stroke="black" points="16,-170.8 16,-222.8 154,-222.8 154,-170.8 16,-170.8"/>
</g>
<!-- TaxrefComponent -->
<g id="node1" class="node">
<title>TaxrefComponent</title>
<polygon fill="#ffffb3" stroke="black" points="144.14,-84.8 25.86,-84.8 25.86,-48.8 144.14,-48.8 144.14,-84.8"/>
<text text-anchor="middle" x="85" y="-62.6" font-family="Times,serif" font-size="14.00">TaxrefComponent</text>
</g>
<!-- TaxrefModule -->
<g id="node2" class="node">
<title>TaxrefModule</title>
<polygon fill="#8dd3c7" stroke="black" points="133.36,-149.8 130.36,-153.8 109.36,-153.8 106.36,-149.8 36.64,-149.8 36.64,-113.8 133.36,-113.8 133.36,-149.8"/>
<text text-anchor="middle" x="85" y="-127.6" font-family="Times,serif" font-size="14.00">TaxrefModule</text>
</g>
<!-- TaxrefComponent&#45;&gt;TaxrefModule -->
<g id="edge1" class="edge">
<title>TaxrefComponent&#45;&gt;TaxrefModule</title>
<path fill="none" stroke="black" d="M85,-84.91C85,-84.91 85,-103.79 85,-103.79"/>
<polygon fill="black" stroke="black" points="81.5,-103.79 85,-113.79 88.5,-103.79 81.5,-103.79"/>
</g>
<!-- TaxrefComponent  -->
<g id="node3" class="node">
<title>TaxrefComponent </title>
<polygon fill="#fb8072" stroke="black" points="146.13,-214.8 23.87,-214.8 23.87,-178.8 146.13,-178.8 146.13,-214.8"/>
<text text-anchor="middle" x="85" y="-192.6" font-family="Times,serif" font-size="14.00">TaxrefComponent </text>
</g>
<!-- TaxrefModule&#45;&gt;TaxrefComponent  -->
<g id="edge2" class="edge">
<title>TaxrefModule&#45;&gt;TaxrefComponent </title>
<path fill="none" stroke="black" stroke-dasharray="5,2" d="M85,-149.91C85,-149.91 85,-168.79 85,-168.79"/>
<polygon fill="black" stroke="black" points="81.5,-168.79 85,-178.79 88.5,-168.79 81.5,-168.79"/>
</g>
</g>
</svg>
